<?xml version="1.0" encoding="utf-8"?>
<!-- Generator: Adobe Illustrator 24.0.1, SVG Export Plug-In . SVG Version: 6.00 Build 0)  -->
<svg version="1.1" id="Réteg_1" xmlns="http://www.w3.org/2000/svg" xmlns:xlink="http://www.w3.org/1999/xlink" x="0px" y="0px"
	 viewBox="0 0 800 300" style="enable-background:new 0 0 800 300;" xml:space="preserve">
<style type="text/css">
	.st0{fill:#C58961;stroke:#6899A3;stroke-width:0.1;stroke-miterlimit:10;}
	.st1{fill:#C6F9FC;stroke:#C6F9FC;stroke-width:0.1463;stroke-miterlimit:10;}
	.st2{fill:#6F585F;stroke:#6F585F;stroke-width:0.1463;stroke-miterlimit:10;}
	.st3{fill:url(#Füst_2_);stroke:#FFFFFF;stroke-width:0.1463;stroke-miterlimit:10;}
	.st4{fill:#FFFFFF;}
	.st5{fill:none;stroke:#FFFFFF;stroke-width:4;stroke-miterlimit:30;}
	.st6{fill:none;stroke:#C69C6D;stroke-width:0.25;stroke-miterlimit:30;}
	.st7{fill:#58D6BA;stroke:#58D6BA;stroke-width:0.2066;stroke-miterlimit:10;}
	.st8{fill:#F4A6A4;stroke:#F4A6A4;stroke-width:0.2066;stroke-miterlimit:10;}
	.st9{fill:#3E9B86;}
	.st10{fill:#FFFFFF;stroke:#58D6BA;stroke-width:0.0967;stroke-miterlimit:10;}
	.st11{fill:#4AB29B;}
	.st12{opacity:0.58;fill:#449B8C;stroke:#6899A3;stroke-width:0.25;stroke-miterlimit:10;}
	.st13{fill:#247C6B;}
	.st14{fill:#AB936F;}
	.st15{fill:#8C6239;}
	.st16{fill:#EFA1A8;}
	.st17{fill:#F2D73D;}
	.st18{fill:#6899A3;}
	.st19{fill:#C6F9FC;stroke:#C6F9FC;stroke-width:0.2008;stroke-miterlimit:10;}
	.st20{fill:#6F585F;stroke:#6F585F;stroke-width:0.2008;stroke-miterlimit:10;}
	.st21{fill:url(#Füst_3_);stroke:#FFFFFF;stroke-width:0.2008;stroke-miterlimit:10;}
	.st22{fill:#58D6BA;stroke:#58D6BA;stroke-width:0.1;stroke-miterlimit:10;}
	.st23{opacity:0.58;fill:#3A8774;stroke:#6899A3;stroke-width:0.2262;stroke-miterlimit:10;}
	.st24{fill:#39B54A;}
	.st25{opacity:0.58;fill:#3A8774;stroke:#6899A3;stroke-width:0.1846;stroke-miterlimit:10;}
	.st26{opacity:0.58;fill:#7AE6DD;stroke:#DBE6DD;stroke-width:0.25;stroke-miterlimit:10;}
</style>
<g id="Ház_1_">
	<rect id="Házfal_1_" x="451.09" y="41.42" class="st0" width="23.92" height="19.58"/>
	<path id="Ablakok_1_" class="st1" d="M471.69,49.15h-6.64V44h6.64V49.15z M461.06,44h-6.64v5.15h6.64V44z M461.06,52.76h-6.64v5.15
		h6.64V52.76z"/>
	<rect id="Ajtó_1_" x="465.05" y="52.24" class="st2" width="6.64" height="8.76"/>
	<polygon id="Tető_1_" class="st2" points="463.05,31.63 479,41.42 447.11,41.42 	"/>
	<rect id="Kémény_1_" x="467.71" y="31.63" class="st2" width="5.98" height="7.21"/>
	<linearGradient id="Füst_2_" gradientUnits="userSpaceOnUse" x1="470.771" y1="31.4507" x2="470.771" y2="22.1758">
		<stop  offset="0" style="stop-color:#FFFFFF"/>
		<stop  offset="0.3538" style="stop-color:#FBFCFC;stop-opacity:0.6462"/>
		<stop  offset="0.7309" style="stop-color:#EEF4F2;stop-opacity:0.2691"/>
		<stop  offset="1" style="stop-color:#E0EBE7;stop-opacity:0"/>
	</linearGradient>
	<path id="Füst_1_" class="st3" d="M473.76,31.45c0-6.18-1.34-9.27-2.99-9.27c-1.65,0-2.99,4.15-2.99,9.27"/>
</g>
<g id="Rúd_1_">
	<g id="Zászlórúd_11_">
		<line class="st4" x1="744.81" y1="229" x2="744.56" y2="127.25"/>
		<g>
			<line class="st5" x1="744.81" y1="229" x2="744.56" y2="127.25"/>
		</g>
	</g>
	<g id="Zászlórúd_9_">
		<line class="st4" x1="742.79" y1="228.34" x2="742.54" y2="126.59"/>
		<g>
			<line class="st6" x1="742.79" y1="228.34" x2="742.54" y2="126.59"/>
		</g>
	</g>
	<g id="Zászlórúd_2_">
		<line class="st4" x1="746.57" y1="228.72" x2="746.32" y2="126.97"/>
		<g>
			<line class="st6" x1="746.57" y1="228.72" x2="746.32" y2="126.97"/>
		</g>
	</g>
</g>
<polygon id="Z-zászló_1_" class="st7" points="710,117.86 746,103.11 746,132.61 "/>
<polygon id="R-zászló_1_" class="st8" points="710,101.25 746,86.5 746,116 "/>
<g id="Rúd">
	<g id="Zászlórúd_3_">
		<line class="st4" x1="56.5" y1="238" x2="56.25" y2="136.25"/>
		<g>
			<line class="st5" x1="56.5" y1="238" x2="56.25" y2="136.25"/>
		</g>
	</g>
	<g id="Zászlórúd_1_">
		<line class="st4" x1="54.49" y1="237.33" x2="54.24" y2="135.58"/>
		<g>
			<line class="st6" x1="54.49" y1="237.33" x2="54.24" y2="135.58"/>
		</g>
	</g>
	<g id="Zászlórúd_4_">
		<line class="st4" x1="58.26" y1="237.72" x2="58.01" y2="135.97"/>
		<g>
			<line class="st6" x1="58.26" y1="237.72" x2="58.01" y2="135.97"/>
		</g>
	</g>
</g>
<path id="Hátsó-domb_1_" class="st9" d="M650.21,299.65c1.18-9.17,1.79-18.52,1.79-28.01c0-119.63-96.93-216.61-216.5-216.61
	c-71.77,0-135.39,34.94-174.78,88.75"/>
<path id="Köz_1_" class="st10" d="M795.7,299.65C777.45,200.44,685.8,125,575.5,125s-201.95,75.44-220.2,174.65"/>
<path id="Első-domb_1_" class="st11" d="M492.32,300.5C456.11,205.75,359.88,138,246.86,138C133.83,138,37.6,205.75,1.39,300.5"/>
<g id="Fenyőfa">
	<ellipse id="Árnyék" class="st12" cx="139.5" cy="196.5" rx="11.5" ry="5.5"/>
	<polygon id="Fenyő" class="st13" points="139.5,119 156,181.54 123,181.54 	"/>
	<g id="Törzs">
		<path class="st14" d="M139.08,196.21c-0.14-12.47-0.5-27.41-0.53-39.89 M139,178.51c2.43-3.62,4.86-7.25,7.29-10.87
			 M131.35,165.48c2.39,2.52,4.78,5.04,7.16,7.56 M139.04,165.24c2.72-2.22,4.08-3.08,6.8-5.29"/>
		<g>
			<path class="st15" d="M140.2,196.21c-0.15-13.3-0.49-26.59-0.53-39.89c0-1.45-2.25-1.45-2.25,0c0.04,13.3,0.38,26.59,0.53,39.89
				C137.97,197.66,140.22,197.66,140.2,196.21L140.2,196.21z"/>
			<path class="st15" d="M139.97,179.08c2.43-3.62,4.86-7.25,7.29-10.87c0.34-0.5,0.1-1.25-0.4-1.54c-0.55-0.32-1.2-0.1-1.54,0.4
				c-2.43,3.62-4.86,7.25-7.29,10.87c-0.34,0.5-0.1,1.25,0.4,1.54C138.99,179.81,139.64,179.59,139.97,179.08L139.97,179.08z"/>
			<path class="st15" d="M130.56,166.28c2.39,2.52,4.78,5.04,7.16,7.56c0.42,0.44,1.17,0.42,1.59,0c0.44-0.44,0.42-1.15,0-1.59
				c-2.39-2.52-4.78-5.04-7.16-7.56c-0.42-0.44-1.17-0.42-1.59,0C130.12,165.13,130.14,165.84,130.56,166.28L130.56,166.28z"/>
			<path class="st15" d="M139.83,166.03c0.33-0.27,0.66-0.53,0.99-0.79c0.14-0.11,0.27-0.21,0.41-0.32
				c0.07-0.06,0.15-0.11,0.22-0.17c0.15-0.12-0.02,0.01,0.07-0.06c0.52-0.4,1.04-0.79,1.57-1.19c1.2-0.9,2.39-1.82,3.55-2.76
				c0.46-0.37,0.42-1.21,0-1.59c-0.49-0.45-1.1-0.4-1.59,0c-0.33,0.27-0.66,0.53-0.99,0.79c-0.14,0.11-0.27,0.21-0.41,0.32
				c-0.07,0.06-0.15,0.11-0.22,0.17c-0.15,0.12,0.02-0.01-0.07,0.06c-0.52,0.4-1.04,0.79-1.57,1.19c-1.2,0.9-2.39,1.82-3.55,2.76
				c-0.46,0.37-0.42,1.21,0,1.59C138.73,166.48,139.34,166.43,139.83,166.03L139.83,166.03z"/>
		</g>
	</g>
</g>
<g id="Fenyőfa_1_">
	<ellipse id="Árnyék_1_" class="st12" cx="187.94" cy="177.17" rx="11.06" ry="4.17"/>
	<polygon id="Fenyő_1_" class="st16" points="187.94,123 203,166.66 172.87,166.66 	"/>
	<g id="Törzs_1_">
		<path class="st14" d="M187.55,176.9c-0.13-8.71-0.46-19.14-0.49-27.84 M187.48,164.54c2.22-2.53,4.44-5.06,6.66-7.59
			 M180.5,155.45c2.18,1.76,4.36,3.52,6.54,5.28 M187.51,155.28c2.49-1.55,3.72-2.15,6.21-3.69"/>
		<g>
			<path class="st15" d="M188.68,176.9c-0.14-9.28-0.45-18.56-0.49-27.84c-0.01-1.45-2.26-1.45-2.25,0
				c0.04,9.28,0.35,18.56,0.49,27.84C186.45,178.34,188.7,178.35,188.68,176.9L188.68,176.9z"/>
			<path class="st15" d="M188.28,165.34c2.22-2.53,4.44-5.06,6.66-7.59c0.4-0.46,0.45-1.14,0-1.59c-0.41-0.41-1.19-0.46-1.59,0
				c-2.22,2.53-4.44,5.06-6.66,7.59c-0.4,0.46-0.45,1.14,0,1.59C187.1,165.75,187.88,165.8,188.28,165.34L188.28,165.34z"/>
			<path class="st15" d="M179.7,156.24c2.18,1.76,4.36,3.52,6.54,5.28c0.46,0.37,1.15,0.48,1.59,0c0.38-0.41,0.49-1.2,0-1.59
				c-2.18-1.76-4.36-3.52-6.54-5.28c-0.46-0.37-1.15-0.48-1.59,0C179.33,155.06,179.21,155.85,179.7,156.24L179.7,156.24z"/>
			<path class="st15" d="M188.08,156.25c2.05-1.27,4.16-2.42,6.21-3.69c0.5-0.31,0.74-1.02,0.4-1.54c-0.32-0.5-1-0.74-1.54-0.4
				c-2.05,1.27-4.16,2.42-6.21,3.69c-0.5,0.31-0.74,1.02-0.4,1.54C186.86,156.35,187.55,156.58,188.08,156.25L188.08,156.25z"/>
		</g>
	</g>
</g>
<g id="Fenyőfa_2_">
	<ellipse id="Árnyék_2_" class="st12" cx="97.44" cy="214.35" rx="9.56" ry="4.35"/>
	<polygon id="Fenyő_2_" class="st17" points="97.44,155 110,202.6 84.87,202.6 	"/>
	<g id="Törzs_3_">
		<path class="st4" d="M97.12,213.77c-0.1-9.49-0.38-20.87-0.41-30.36 M97.06,200.3c1.85-2.76,3.7-5.51,5.55-8.27 M91.23,190.38
			c1.82,1.92,3.64,3.84,5.46,5.76 M97.08,190.19c2.07-1.69,3.11-2.34,5.18-4.03"/>
		<g>
			<path class="st15" d="M98.24,213.77c-0.11-10.12-0.37-20.24-0.41-30.36c0-1.45-2.25-1.45-2.25,0
				c0.03,10.12,0.29,20.24,0.41,30.36C96.01,215.21,98.26,215.22,98.24,213.77L98.24,213.77z"/>
			<path class="st15" d="M98.03,200.86c1.85-2.76,3.7-5.51,5.55-8.27c0.34-0.5,0.1-1.25-0.4-1.54c-0.55-0.32-1.2-0.1-1.54,0.4
				c-1.85,2.76-3.7,5.51-5.55,8.27c-0.34,0.5-0.1,1.25,0.4,1.54C97.04,201.59,97.69,201.37,98.03,200.86L98.03,200.86z"/>
			<path class="st15" d="M90.44,191.18c1.82,1.92,3.64,3.84,5.46,5.76c0.41,0.43,1.19,0.44,1.59,0c0.42-0.46,0.43-1.13,0-1.59
				c-1.82-1.92-3.64-3.84-5.46-5.76c-0.41-0.43-1.19-0.44-1.59,0C90.02,190.04,90,190.72,90.44,191.18L90.44,191.18z"/>
			<path class="st15" d="M97.88,190.99c0.25-0.2,0.5-0.4,0.75-0.6c0.1-0.08,0.21-0.16,0.31-0.24c0.06-0.04,0.11-0.09,0.17-0.13
				c0.17-0.13-0.11,0.08,0,0c0.4-0.3,0.79-0.61,1.19-0.91c0.93-0.7,1.85-1.41,2.76-2.15c0.46-0.37,0.42-1.21,0-1.59
				c-0.49-0.45-1.1-0.4-1.59,0c-0.25,0.2-0.5,0.4-0.75,0.6c-0.1,0.08-0.21,0.16-0.31,0.24c-0.06,0.04-0.11,0.09-0.17,0.13
				c-0.17,0.13,0.11-0.08,0,0c-0.4,0.3-0.79,0.61-1.19,0.91c-0.93,0.7-1.85,1.41-2.76,2.15c-0.46,0.37-0.42,1.21,0,1.59
				C96.78,191.44,97.39,191.39,97.88,190.99L97.88,190.99z"/>
		</g>
	</g>
</g>
<g id="Ház">
	<rect id="Házfal" x="225" y="120.57" class="st18" width="30" height="29.43"/>
	<path id="Ablakok" class="st19" d="M250.83,132.19h-8.33v-7.74h8.33V132.19z M237.5,124.45h-8.33v7.74h8.33V124.45z M237.5,137.61
		h-8.33v7.74h8.33V137.61z"/>
	<rect id="Ajtó" x="242.5" y="136.84" class="st20" width="8.33" height="13.16"/>
	<polygon id="Tető" class="st20" points="240,105.86 260,120.57 220,120.57 	"/>
	<rect id="Kémény" x="245.83" y="105.86" class="st20" width="7.5" height="10.84"/>
	<linearGradient id="Füst_3_" gradientUnits="userSpaceOnUse" x1="249.6787" y1="105.5917" x2="249.6787" y2="91.6529">
		<stop  offset="0" style="stop-color:#FFFFFF"/>
		<stop  offset="0.3538" style="stop-color:#FBFCFC;stop-opacity:0.6462"/>
		<stop  offset="0.7309" style="stop-color:#EEF4F2;stop-opacity:0.2691"/>
		<stop  offset="1" style="stop-color:#E0EBE7;stop-opacity:0"/>
	</linearGradient>
	<path id="Füst" class="st21" d="M253.43,105.59c0-9.29-1.68-13.94-3.75-13.94c-2.07,0-3.75,6.24-3.75,13.94"/>
</g>
<polygon id="R-zászló" class="st8" points="22,125.25 58,110.5 58,140 "/>
<polygon id="Z-zászló" class="st22" points="22,109.86 58,95.11 58,124.61 "/>
<g id="Fenyőfa_3_">
	<ellipse id="Árnyék_3_" class="st23" cx="379.8" cy="98.9" rx="10.59" ry="4.89"/>
	<polygon id="Fenyő_3_" class="st24" points="379.8,30 395,85.6 364.61,85.6 	"/>
	<g id="Törzs_2_">
		<path class="st14" d="M379.42,98.64c-0.13-11.09-0.46-24.37-0.49-35.46 M379.35,82.91c2.24-3.22,4.48-6.44,6.71-9.66 M372.3,71.32
			c2.2,2.24,4.4,4.48,6.6,6.72 M379.38,71.11c2.51-1.97,3.76-2.73,6.26-4.71"/>
		<g>
			<path class="st15" d="M380.43,98.64c-0.14-11.82-0.45-23.64-0.49-35.46c0-1.31-2.04-1.31-2.04,0
				c0.04,11.82,0.35,23.64,0.49,35.46C378.41,99.95,380.45,99.95,380.43,98.64L380.43,98.64z"/>
			<path class="st15" d="M380.23,83.42c2.24-3.22,4.48-6.44,6.71-9.66c0.31-0.45,0.08-1.13-0.37-1.39c-0.51-0.3-1.08-0.09-1.39,0.37
				c-2.24,3.22-4.48,6.44-6.71,9.66c-0.31,0.45-0.08,1.13,0.37,1.39C379.34,84.08,379.91,83.87,380.23,83.42L380.23,83.42z"/>
			<path class="st15" d="M371.58,72.04c2.2,2.24,4.4,4.48,6.6,6.72c0.39,0.39,1.05,0.39,1.44,0c0.39-0.39,0.39-1.05,0-1.44
				c-2.2-2.24-4.4-4.48-6.6-6.72c-0.39-0.39-1.05-0.39-1.44,0C371.19,71,371.19,71.65,371.58,72.04L371.58,72.04z"/>
			<path class="st15" d="M380.1,71.83c1.97-1.54,4.22-3.1,6.26-4.71c0.42-0.33,0.37-1.1,0-1.44c-0.45-0.41-0.99-0.35-1.44,0
				c-1.97,1.54-4.22,3.1-6.26,4.71c-0.42,0.33-0.37,1.1,0,1.44C379.1,72.24,379.65,72.18,380.1,71.83L380.1,71.83z"/>
		</g>
	</g>
</g>
<g id="Fenyőfa_4_">
	<ellipse id="Árnyék_4_" class="st25" cx="521.3" cy="96.89" rx="8.85" ry="3.9"/>
	<polygon id="Fenyő_4_" class="st13" points="521.3,42 534,86.3 508.61,86.3 	"/>
	<g id="Törzs_7_">
		<path class="st14" d="M520.98,96.69c-0.11-8.83-0.38-19.42-0.41-28.25 M520.92,84.15c1.87-2.57,3.74-5.13,5.61-7.7 M515.04,74.92
			c1.84,1.79,3.68,3.57,5.51,5.36 M520.95,74.75c2.1-1.57,3.14-2.18,5.23-3.75"/>
		<g>
			<path class="st15" d="M521.81,96.69c-0.12-9.42-0.38-18.83-0.41-28.25c0-1.07-1.66-1.07-1.66,0c0.03,9.42,0.29,18.83,0.41,28.25
				C520.16,97.75,521.82,97.76,521.81,96.69L521.81,96.69z"/>
			<path class="st15" d="M521.64,84.57c1.87-2.57,3.74-5.13,5.61-7.7c0.26-0.36,0.06-0.93-0.3-1.14c-0.42-0.25-0.87-0.07-1.14,0.3
				c-1.87,2.57-3.74,5.13-5.61,7.7c-0.26,0.36-0.06,0.93,0.3,1.14C520.92,85.11,521.37,84.93,521.64,84.57L521.64,84.57z"/>
			<path class="st15" d="M514.45,75.51c1.84,1.79,3.68,3.57,5.51,5.36c0.32,0.31,0.85,0.32,1.17,0c0.31-0.31,0.32-0.86,0-1.17
				c-1.84-1.79-3.68-3.57-5.51-5.36c-0.32-0.31-0.85-0.32-1.17,0C514.13,74.65,514.13,75.2,514.45,75.51L514.45,75.51z"/>
			<path class="st15" d="M521.37,75.47c1.72-1.29,3.52-2.46,5.23-3.75c0.35-0.26,0.56-0.73,0.3-1.14c-0.22-0.34-0.76-0.58-1.14-0.3
				c-1.72,1.29-3.52,2.46-5.23,3.75c-0.35,0.26-0.56,0.73-0.3,1.14C520.45,75.51,520.99,75.75,521.37,75.47L521.37,75.47z"/>
		</g>
	</g>
</g>
<g id="Fenyőfa_7_">
	<ellipse id="Árnyék_7_" class="st26" cx="652.19" cy="232.72" rx="11.5" ry="5.5"/>
	<polygon id="Fenyő_7_" class="st13" points="652.19,155.22 668.69,217.76 635.69,217.76 	"/>
	<g id="Törzs_12_">
		<path class="st14" d="M651.77,232.43c-0.14-12.47-0.5-27.41-0.53-39.89 M651.69,214.73c2.43-3.62,4.86-7.25,7.29-10.87
			 M644.04,201.7c2.39,2.52,4.78,5.04,7.16,7.56 M651.73,201.46c2.72-2.22,4.08-3.08,6.8-5.29"/>
		<g>
			<path class="st15" d="M652.89,232.43c-0.15-13.3-0.49-26.59-0.53-39.89c0-1.45-2.25-1.45-2.25,0c0.04,13.3,0.38,26.59,0.53,39.89
				C650.66,233.88,652.91,233.88,652.89,232.43L652.89,232.43z"/>
			<path class="st15" d="M652.66,215.3c2.43-3.62,4.86-7.25,7.29-10.87c0.34-0.5,0.1-1.25-0.4-1.54c-0.55-0.32-1.2-0.1-1.54,0.4
				c-2.43,3.62-4.86,7.25-7.29,10.87c-0.34,0.5-0.1,1.25,0.4,1.54C651.68,216.03,652.32,215.81,652.66,215.3L652.66,215.3z"/>
			<path class="st15" d="M643.25,202.5c2.39,2.52,4.78,5.04,7.16,7.56c0.42,0.44,1.17,0.42,1.59,0c0.44-0.44,0.42-1.15,0-1.59
				c-2.39-2.52-4.78-5.04-7.16-7.56c-0.42-0.44-1.17-0.42-1.59,0C642.81,201.35,642.83,202.06,643.25,202.5L643.25,202.5z"/>
			<path class="st15" d="M652.52,202.26c0.33-0.27,0.66-0.53,0.99-0.79c0.14-0.11,0.27-0.21,0.41-0.32
				c0.07-0.06,0.15-0.11,0.22-0.17c0.15-0.12-0.02,0.01,0.07-0.06c0.52-0.4,1.04-0.79,1.57-1.19c1.2-0.9,2.39-1.82,3.55-2.76
				c0.46-0.37,0.42-1.21,0-1.59c-0.49-0.45-1.1-0.4-1.59,0c-0.33,0.27-0.66,0.53-0.99,0.79c-0.14,0.11-0.27,0.21-0.41,0.32
				c-0.07,0.06-0.15,0.11-0.22,0.17c-0.15,0.12,0.02-0.01-0.07,0.06c-0.52,0.4-1.04,0.79-1.57,1.19c-1.2,0.9-2.39,1.82-3.55,2.76
				c-0.46,0.37-0.42,1.21,0,1.59C651.42,202.7,652.03,202.65,652.52,202.26L652.52,202.26z"/>
		</g>
	</g>
</g>
<g id="Fenyőfa_6_">
	<ellipse id="Árnyék_6_" class="st26" cx="611.63" cy="167.39" rx="11.06" ry="4.17"/>
	<polygon id="Fenyő_6_" class="st16" points="611.63,113.22 626.69,156.88 596.56,156.88 	"/>
	<g id="Törzs_11_">
		<path class="st14" d="M611.24,167.12c-0.13-8.71-0.46-19.14-0.49-27.84 M611.17,154.76c2.22-2.53,4.44-5.06,6.66-7.59
			 M604.19,145.67c2.18,1.76,4.36,3.52,6.54,5.28 M611.2,145.5c2.49-1.55,3.72-2.15,6.21-3.69"/>
		<g>
			<path class="st15" d="M612.37,167.12c-0.14-9.28-0.45-18.56-0.49-27.84c-0.01-1.45-2.26-1.45-2.25,0
				c0.04,9.28,0.35,18.56,0.49,27.84C610.14,168.57,612.39,168.57,612.37,167.12L612.37,167.12z"/>
			<path class="st15" d="M611.97,155.56c2.22-2.53,4.44-5.06,6.66-7.59c0.4-0.46,0.45-1.14,0-1.59c-0.41-0.41-1.19-0.46-1.59,0
				c-2.22,2.53-4.44,5.06-6.66,7.59c-0.4,0.46-0.45,1.14,0,1.59C610.79,155.97,611.57,156.02,611.97,155.56L611.97,155.56z"/>
			<path class="st15" d="M603.39,146.47c2.18,1.76,4.36,3.52,6.54,5.28c0.46,0.37,1.15,0.48,1.59,0c0.38-0.41,0.49-1.2,0-1.59
				c-2.18-1.76-4.36-3.52-6.54-5.28c-0.46-0.37-1.15-0.48-1.59,0C603.02,145.28,602.9,146.07,603.39,146.47L603.39,146.47z"/>
			<path class="st15" d="M611.77,146.47c2.05-1.27,4.16-2.42,6.21-3.69c0.5-0.31,0.74-1.02,0.4-1.54c-0.32-0.5-1-0.74-1.54-0.4
				c-2.05,1.27-4.16,2.42-6.21,3.69c-0.5,0.31-0.74,1.02-0.4,1.54C610.55,146.57,611.24,146.8,611.77,146.47L611.77,146.47z"/>
		</g>
	</g>
</g>
<g id="Fenyőfa_5_">
	<ellipse id="Árnyék_5_" class="st26" cx="694.13" cy="178.57" rx="9.56" ry="4.35"/>
	<polygon id="Fenyő_5_" class="st17" points="694.13,119.22 706.69,166.82 681.56,166.82 	"/>
	<g id="Törzs_8_">
		<path class="st4" d="M693.81,177.99c-0.1-9.49-0.38-20.87-0.41-30.36 M693.75,164.52c1.85-2.76,3.7-5.51,5.55-8.27 M687.92,154.6
			c1.82,1.92,3.64,3.84,5.46,5.76 M693.77,154.42c2.07-1.69,3.11-2.34,5.18-4.03"/>
		<g>
			<path class="st15" d="M694.93,177.99c-0.11-10.12-0.37-20.24-0.41-30.36c0-1.45-2.25-1.45-2.25,0
				c0.03,10.12,0.29,20.24,0.41,30.36C692.7,179.44,694.95,179.44,694.93,177.99L694.93,177.99z"/>
			<path class="st15" d="M694.72,165.09c1.85-2.76,3.7-5.51,5.55-8.27c0.34-0.5,0.1-1.25-0.4-1.54c-0.55-0.32-1.2-0.1-1.54,0.4
				c-1.85,2.76-3.7,5.51-5.55,8.27c-0.34,0.5-0.1,1.25,0.4,1.54C693.73,165.81,694.38,165.59,694.72,165.09L694.72,165.09z"/>
			<path class="st15" d="M687.13,155.4c1.82,1.92,3.64,3.84,5.46,5.76c0.41,0.43,1.19,0.44,1.59,0c0.42-0.46,0.43-1.13,0-1.59
				c-1.82-1.92-3.64-3.84-5.46-5.76c-0.41-0.43-1.19-0.44-1.59,0C686.71,154.27,686.69,154.94,687.13,155.4L687.13,155.4z"/>
			<path class="st15" d="M694.57,155.21c0.25-0.2,0.5-0.4,0.75-0.6c0.1-0.08,0.21-0.16,0.31-0.24c0.06-0.04,0.11-0.09,0.17-0.13
				c0.17-0.13-0.11,0.08,0,0c0.4-0.3,0.79-0.61,1.19-0.91c0.93-0.7,1.85-1.41,2.76-2.15c0.46-0.37,0.42-1.21,0-1.59
				c-0.49-0.45-1.1-0.4-1.59,0c-0.25,0.2-0.5,0.4-0.75,0.6c-0.1,0.08-0.21,0.16-0.31,0.24c-0.06,0.04-0.11,0.09-0.17,0.13
				c-0.17,0.13,0.11-0.08,0,0c-0.4,0.3-0.79,0.61-1.19,0.91c-0.93,0.7-1.85,1.41-2.76,2.15c-0.46,0.37-0.42,1.21,0,1.59
				C693.46,155.66,694.08,155.61,694.57,155.21L694.57,155.21z"/>
		</g>
	</g>
</g>
</svg>
